<svg xmlns="http://www.w3.org/2000/svg" version="1.1" xmlns:xlink="http://www.w3.org/1999/xlink" xmlns:svgjs="http://svgjs.com/svgjs" width="100%" height="100%"><svg width="100%" height="100%" viewBox="0 0 34 30" version="1.1" xmlns="http://www.w3.org/2000/svg" xmlns:xlink="http://www.w3.org/1999/xlink" xml:space="preserve" xmlns:serif="http://www.serif.com/" style="fill-rule:evenodd;clip-rule:evenodd;stroke-linejoin:round;stroke-miterlimit:2;">
    <path d="M30.568,12.552L30.568,14.994C30.568,23.226 23.794,30 15.562,30L1.667,30C1.033,30 0.453,29.64 0.172,29.07C-0.109,28.501 -0.042,27.822 0.344,27.318L12.783,11.094L12.783,8.878C12.791,4.005 16.803,-0 21.675,-0C25.483,-0 28.862,2.445 30.085,6.003L33.159,8.048C33.623,8.357 33.902,8.878 33.903,9.435C33.903,9.993 33.624,10.514 33.16,10.823L30.568,12.552ZM27.976,10.272L29.227,9.437L27.741,8.448C27.401,8.222 27.155,7.878 27.051,7.483C26.413,5.047 24.194,3.335 21.675,3.335C18.63,3.335 16.123,5.837 16.118,8.882L16.118,11.659C16.118,12.026 15.997,12.383 15.773,12.674L5.047,26.665L15.562,26.665C21.965,26.665 27.233,21.397 27.233,14.994L27.233,11.659C27.233,11.102 27.512,10.581 27.976,10.272ZM13.927,23.788C13.367,24.519 12.32,24.658 11.589,24.099C10.858,23.54 10.719,22.493 11.278,21.762L15.53,16.204C16.089,15.473 17.136,15.334 17.867,15.893C18.598,16.452 18.737,17.499 18.178,18.23L13.927,23.788ZM22.231,6.101C23.458,6.101 24.454,7.098 24.454,8.325C24.454,9.552 23.458,10.548 22.231,10.548C21.004,10.548 20.008,9.552 20.008,8.325C20.008,7.098 21.004,6.101 22.231,6.101Z" style="fill:black;"></path>
</svg><style>@media (prefers-color-scheme: light) { :root { filter: none; } }
@media (prefers-color-scheme: dark) { :root { filter: invert(100%); } }
</style></svg>