<svg xmlns="http://www.w3.org/2000/svg" xml:space="preserve" fill-rule="evenodd" stroke-linejoin="round" stroke-miterlimit="2" clip-rule="evenodd" viewBox="0 0 718 718"><path fill="currentColor" d="M648.051 524.478c-3.82-45.867-18.477-41.571-18.477-41.571s-1.362 12.897-6.864 16.407c-5.503 3.509 4.605-22.917-5.27-39.291 0 0 8.148.698 18.466 9.831 16.983 15.045 21.843 43.94 12.145 54.624m-68.839-122.466c-6.565 12.111-22.286 12.864-31.707 5.192-14.326-11.68-18.699-32.67-17.171-56.429 0 0 20.824 5.658 36.833 21.013-1.771 16.009-12.975 33.633-12.975 33.633s17.392-4.871 24.201-20.824c-.022.454 4.583 10.462.819 17.415M290.693 246.941s-23.105-10.661-33.755-69.292c58.621 44.427 126.131 40.862 186.534 88.833-106.591-35.538-152.779-19.541-152.779-19.541m373.079 222.072c-8.868-39.081-32.405-63.536-39.07-71.064-17.68-84.649-67.621-124.947-207.878-182.991C289.387 160.345 230.29 129.679 178.755-.006c-5.734 83.94 18.101 116.123 18.954 117.639 0 0-20.603-7.262-36.7-30.589 7.096 55.078 49.741 71.065 49.741 71.065 18.201 56.649 53.285 95.94 53.285 95.94C95.27 305.562 65.057 511.647 65.057 511.647s56.86-88.822 191.881-85.279C88.162 453.015 50.842 641.331 50.842 641.331s62.185-85.268 213.193-72.824c-1.063-.974 29.36-50.052 99.494-79.954 0 0-52.122 36.401-65.728 85.268 0 0 29.127 4.284 44.405 8.901 15.333 4.583 43.066 16.108 44.417 39.08 1.782 30.191-69.027 43.575-69.282 42.634 51.513 30.202 91.8 18.522 92.387 17.769-12.444 19.54-56.849 24.865-56.849 24.865s143.899 49.742 151.007-69.281c31.972-28.43 31.972-58.632 31.972-58.632s-20.226 19.562-47.97 19.54c-11.923-.011-82.246-54.004-56.849-81.714 19.54-21.323 53.295-35.527 97.712-30.202 34.552 4.152 49.985 53.606 49.752 55.067-3.642 33.777-26.647 51.524-26.647 51.524s30.201 1.783 53.295-21.311c19.551 15.986 34.276 3.697 44.417-35.538 8.557-4.594 23.049-28.585 14.204-67.51"/></svg>