<svg xmlns="http://www.w3.org/2000/svg" xml:space="preserve" fill-rule="evenodd" stroke-linejoin="round" stroke-miterlimit="2" clip-rule="evenodd" viewBox="0 0 255 255"><path fill="currentColor" d="M252.719 64.068c-9.17-2.49-20.28-.64-29.21 2.09-17.06 5.48-31.62 17.06-47.49 25.35-8.37 3.54-19.88 4.26-27.6-.56-1.85-1.31-5.2-.37-5.2-.37a3.734 3.734 0 0 0-3.73-.59c-3.86 2.82-7.89-1.53-12 .73-4.1-2.25-8.12 2.09-12-.73a3.734 3.734 0 0 0-3.73.59c-1.043.857-3.35-.94-5.2.37-7.72 4.83-19.23 4.1-27.6.56-15.81-8.29-30.37-19.87-47.43-25.34-8.93-2.74-20.04-4.59-29.21-2.1-1.21.83-2.57 2.26-2.3 4.03.64 1 1.29 2.5 2.66 2.74 32.87-4.94 50.57 27.67 78.09 36.28.05.35-1.56 1.69-3.3 2.63-3.88 2.15-9.65 1.31-10.05 6.63 1 3.3 5.07 4.51 8 5.79 6.84 3.86 15 .65 21.24-2.49a1.73 1.73 0 0 1 2.49.4c-.51 14.89 10.87 24.82 12.92 38.62 1.21 6.44-2.82 11.18-3.3 17.22-.05 2.23 1.69.75 2.63 8.13.4 1.34 3.76 5.1 6.79 6.68a24.008 24.008 0 0 0 9.33 1.34 24.008 24.008 0 0 0 9.33-1.34c3-1.58 6.38-5.34 6.78-6.68.94-7.37 2.68-5.9 2.63-8.13-.48-6-4.51-10.78-3.3-17.22 2.06-13.8 13.45-23.73 12.96-38.62a1.731 1.731 0 0 1 2.5-.4c6.19 3.14 14.4 6.36 21.24 2.49 2.9-1.29 6.92-2.49 8-5.79-.4-5.31-6.17-4.48-10.06-6.63-1.75-.94-3.35-2.28-3.3-2.63 27.49-8.61 45.19-41.22 78.02-36.29 1.37-.24 2-1.69 2.65-2.74.32-1.76-1.04-3.19-2.25-4.02Z"/></svg>