<svg xmlns="http://www.w3.org/2000/svg" version="1.1" xmlns:xlink="http://www.w3.org/1999/xlink" xmlns:svgjs="http://svgjs.com/svgjs" width="100%" height="100%"><svg width="100%" height="100%" viewBox="0 0 24 24" version="1.1" xmlns="http://www.w3.org/2000/svg" xmlns:xlink="http://www.w3.org/1999/xlink" xml:space="preserve" xmlns:serif="http://www.serif.com/" style="fill-rule:evenodd;clip-rule:evenodd;stroke-linejoin:round;stroke-miterlimit:2;">
    <path d="M15.929,19.487C15.929,19.522 16.193,19.687 16.521,19.851C18.099,20.686 19.071,21.593 19.435,22.601C19.599,23.036 19.606,23.193 19.463,23.521C19.285,23.957 19.256,23.95 20.413,23.914C21.456,23.879 22.07,23.764 22.07,23.6C22.07,23.522 21.213,22.715 20.899,22.507C20.833,22.462 20.771,22.412 20.713,22.357C20.608,22.268 20.501,22.183 20.392,22.1C20.266,22.01 20.142,21.917 20.02,21.822C19.938,21.756 19.855,21.691 19.77,21.629L19.32,21.279C19.15,21.148 18.971,21.028 18.785,20.922C18.457,20.744 18.257,20.615 18.214,20.565C18.164,20.508 17.178,19.972 16.714,19.751C16.5,19.651 16.264,19.537 16.2,19.501C16.043,19.415 15.929,19.408 15.929,19.487ZM10.179,17.951C10.154,18.088 10.136,18.227 10.123,18.366C10.08,18.866 9.744,19.53 9.359,19.886C8.894,20.322 8.609,20.458 8.366,20.366C8.161,20.308 7.951,20.269 7.738,20.251C7.381,20.208 7.252,20.229 7.081,20.329C6.895,20.437 6.859,20.508 6.859,20.729C6.859,21.044 6.852,21.036 7.116,20.894C7.21,20.842 7.311,20.806 7.416,20.786C7.566,20.786 7.509,20.929 7.323,21.015C7.116,21.108 7.059,21.286 7.045,21.843C7.038,22.265 7.166,22.429 7.281,22.129C7.316,22.036 7.451,21.908 7.581,21.836C7.747,21.731 7.89,21.593 8,21.43C8.186,21.116 8.286,21.066 8.286,21.28C8.286,21.737 8.522,21.759 8.722,21.316C8.843,21.073 8.908,21.009 8.993,21.045C9.229,21.145 9.508,21.159 9.608,21.073C9.708,20.987 9.7,20.959 9.565,20.816C9.479,20.723 9.415,20.637 9.436,20.623C9.593,20.509 9.936,20.43 10.286,20.43C10.914,20.43 11,20.323 11,19.516C11,18.696 10.786,18.11 10.436,17.96C10.257,17.888 10.2,17.881 10.179,17.952L10.179,17.951ZM22.535,1.062C22.455,1.157 22.39,1.263 22.342,1.377C21.928,2.262 20.557,3.097 18.393,3.769C18.2,3.833 17.858,3.933 17.643,4.005C17.429,4.069 17.008,4.205 16.715,4.29C13.08,5.397 12.445,5.968 11.145,9.253C10.559,10.725 10.252,11.217 9.645,11.617C9.138,11.96 8.725,12.074 7.575,12.217C5.746,12.438 5.039,12.653 4.468,13.16C4.118,13.46 4.004,13.774 4.004,14.402C4.004,14.688 3.975,14.938 3.947,14.959C3.911,14.981 3.847,15.173 3.797,15.395C3.725,15.695 3.725,15.845 3.79,16.038C3.89,16.33 4.168,16.573 4.418,16.573C4.596,16.573 4.604,16.523 4.468,16.202C4.439,16.123 4.482,16.023 4.604,15.895C4.761,15.738 4.839,15.716 5.324,15.716C5.882,15.716 6.068,15.659 6.332,15.416C6.482,15.281 6.489,15.281 6.689,15.502C7.11,15.966 8.209,16.623 9.581,17.237C10.231,17.53 10.638,17.88 10.945,18.423C11.152,18.78 11.181,18.88 11.181,19.393C11.181,20.229 10.881,20.801 10.295,21.073C10.195,21.123 10.052,21.186 9.988,21.223C9.917,21.258 9.652,21.286 9.395,21.286L8.93,21.286L8.78,21.622C8.703,21.801 8.62,21.977 8.53,22.15C8.452,22.308 8.452,22.358 8.53,22.472C8.623,22.593 8.652,22.579 8.994,22.229C9.352,21.865 9.573,21.758 9.573,21.958C9.573,22.015 9.444,22.158 9.294,22.279C8.944,22.557 8.894,22.757 9.059,23.229C9.194,23.614 9.373,23.729 9.416,23.464C9.43,23.386 9.537,23.229 9.651,23.114C9.766,23.007 9.859,22.872 9.859,22.822C9.859,22.772 9.909,22.693 9.966,22.643C10.123,22.515 10.187,22.743 10.087,23.1C10.023,23.343 10.03,23.414 10.123,23.514C10.194,23.593 10.216,23.7 10.187,23.821C10.158,23.95 10.173,24 10.237,24C10.337,24 10.573,23.779 10.573,23.686C10.573,23.657 10.637,23.536 10.723,23.422C10.873,23.207 10.88,23.164 10.744,22.408C10.723,22.265 10.73,22.143 10.758,22.143C10.908,22.143 11.422,22.472 11.451,22.586C11.501,22.772 11.715,22.665 11.715,22.45C11.704,22.164 11.54,21.905 11.287,21.772C11.051,21.672 11.008,21.515 11.201,21.458C11.651,21.315 12.072,21.058 12.451,20.679C12.908,20.237 12.986,20.144 13.279,19.715C13.686,19.123 14.065,18.858 14.5,18.858C15.1,18.858 16.985,19.701 18.442,20.622C19.121,21.051 20.449,21.979 20.67,22.179C20.713,22.222 20.956,22.4 21.213,22.586C21.47,22.765 21.913,23.107 22.199,23.35C22.484,23.586 22.741,23.786 22.769,23.786C23.005,23.786 23.084,23.172 22.877,22.986C22.698,22.861 22.512,22.746 22.32,22.643C21.799,22.35 20.792,21.672 20.356,21.308C19.371,20.501 18.114,18.923 17.278,17.444C17.181,17.285 17.088,17.123 17,16.959C16.4,15.909 15.257,14.574 14.95,14.574C14.829,14.574 14.829,14.566 15.022,13.645C15.079,13.352 15.164,12.853 15.207,12.538C15.336,11.668 15.521,10.675 15.657,10.182C16.043,8.732 16.864,7.725 18.357,6.882C20.449,5.69 21.284,4.954 21.884,3.762C22.206,3.126 22.27,2.969 22.463,2.255C22.563,1.891 22.684,1.005 22.634,1.005C22.598,1.019 22.564,1.038 22.534,1.062L22.535,1.062ZM3.496,0.484C1.839,2.198 1.003,3.926 1.003,5.647C1.003,6.04 1.032,6.376 1.075,6.397C1.118,6.418 1.146,6.511 1.146,6.597C1.146,6.797 1.318,7.29 1.546,7.754C1.846,8.375 2.282,8.811 3.467,9.668C4.396,10.338 4.91,11.096 5.081,12.053L5.174,12.567L5.431,12.46C6.081,12.181 6.581,12.081 8.073,11.924C9.03,11.824 9.401,11.681 9.844,11.246C10.473,10.617 10.173,10.21 8.209,9.046C6.095,7.789 5.339,7.204 4.517,6.183C3.86,5.361 3.524,4.683 3.36,3.84C3.203,3.055 3.417,1.812 3.896,0.698C4.031,0.37 4.146,0.084 4.146,0.056C4.146,-0.094 3.91,0.063 3.496,0.484Z" style="fill:#2c6e49;fill-rule:nonzero;"></path>
</svg><style>@media (prefers-color-scheme: light) { :root { filter: none; } }
@media (prefers-color-scheme: dark) { :root { filter: contrast(0.8333333333333334) brightness(1.7); } }
</style></svg>